<?xml version="1.0" encoding="UTF-8"?>
<svg id="Capa_2" data-name="Capa 2" xmlns="http://www.w3.org/2000/svg" viewBox="0 0 598.93 617.31">
  <defs>
    <style>
      .cls-1 {
        fill: #194f8d;
      }

      .cls-1, .cls-2 {
        stroke-width: 0px;
      }

      .cls-2 {
        fill: #24366c;
      }
    </style>
  </defs>
  <g id="Capa_1-2" data-name="Capa 1">
    <g>
      <path class="cls-1" d="m436.81,502.65c-.19-1.39-.39-2.77-.56-4.16-.04-.37-.16-.9.03-1.09,1.46-1.44,1.03-3.36,1.3-5.08.16-1.03.57-1.69,1.38-2.28,2.71-1.96,5.34-3.95,8.56-5.18,1.73-.66,3.24-1.26,5.06-.81.35.09.87.15,1.11-.03,2.74-2.11,5.78-.66,8.68-.74,1.28-.04,2.36.29,3.67-.65,1.23-.88,3.2-.6,4.49.51,1.12.96,2.31,1.11,3.64,1.23,5.18.43,10.35.89,15.52,1.39,1.19.11,2.35.21,3.34,1.24.54.56,1.73.52,2.63.7,1.17.23,2.17.35,3.2,1.37,1.18,1.17,2.62,2.46,4.57,2.55,1.05.05,1.79.61,2.04,1.65.22.91.72,1.44,1.63,1.74.56.19.98.75,1.49,1.11.91.65,1.76,1.59,2.77,1.85,3.73.95,4.91,4.27,6.79,6.94.2.29.09.83.32,1.07,1.68,1.74,2.79,3.62,2.42,6.21-.09.61.61,1.32.91,2,1.2,2.7,1.65,5.71,3.38,8.2.24.34.35.9.27,1.31-.45,2.33-2.51,3.71-4.71,3.13-.48-.12-1.05-.51-1.26-.93-.94-1.96-2.29-3.73-2.76-5.93-.09-.44-.57-1-.99-1.13-2.12-.65-3.43-2.16-4.7-3.86-.76-1.01-1.83-1.82-2.84-2.61-2.47-1.92-6.56-3.12-9.7-2.62-1.33.21-2.6.96-3.82,1.62-1.05.57-1.77.61-2.75-.29-.54-.5-1.98-.73-2.55-.36-1.87,1.21-3.81.88-5.77.72-.97-.08-1.65.26-2.53.66-2.05.94-4.16,2.2-6.65,1.59-.91-.22-1.83-.3-2.62.55-.33.35-1.01.51-1.53.53-1.24.03-2.38.13-3.49.87-.54.36-1.49.31-2.2.16-2.84-.62-5.42.22-7.94,1.31-2.2.96-4.29,1.41-6.22-.53-.13-.13-.31-.27-.47-.28-1.93-.1-3.4-1.28-5.09-1.97-3.69-1.52-6.14-4.1-7.76-7.55-.57-1.21-.49-2.72-.71-4.1.13-.02.25-.04.38-.06l.04.03Z"/>
      <path class="cls-2" d="m95.8,467.45c0,1.48.45,3.01-.81,4.28-.2.2-.2.76-.1,1.08.89,2.71-.65,4.86-1.75,7.04-.41.81-.58,1.5-.61,2.35-.03.72-.08,1.83-.51,2.07-2.35,1.34-2.35,4.04-3.69,5.94-.31.44-.52,1.03-.57,1.58-.33,3.66-3.31,5.39-5.5,7.69-1.59.06-2.01,1.59-2.83,2.48-.64.69-1.13,1.12-2.03,1.17-1.13.07-2.08.38-3.05,1.18-2.64,2.17-5.99,3.31-8.61,5.6-.91.8-3.82-.4-4.38-1.58-.7-1.47-.39-3.1,1.01-4.16,1.53-1.16,3.2-2.14,4.77-3.26.4-.29.94-.83.91-1.21-.12-1.47.59-2.55,1.43-3.58,1.17-1.43,2.51-2.73,3.15-4.54.8-2.27,2.46-4.3,1.69-6.97-.23-.8-.17-1.69-.26-2.53-.1-1.04-.27-1.98-1.24-2.71-.63-.48-.93-1.38-1.4-2.07-.51-.75-.82-1.44-.12-2.3.75-.94.62-2.14-.12-2.86-1.47-1.42-1.51-3.18-1.67-4.95-.1-1.12-.51-1.93-1.21-2.91-1.24-1.75-2.8-3.56-2.72-6.02.04-1.02-.04-2.04-1.18-2.68-.38-.21-.47-.98-.63-1.5-.17-.54-.09-1.27-.43-1.62-1.73-1.79-1.51-4.13-2.05-6.28-.44-1.76-1.53-3.41-2.53-4.98-1.19-1.89-1.67-3.74-.61-5.82.21-.41.47-.89.43-1.3-.36-3.41,2-6.07,2.49-9.24,2.22-2.43,3.87-5.6,7.79-5.8,1.59-.08,3.21-.14,4.58-1.2.31-.24,1.05-.31,1.33-.1,1.42,1.05,2.93.58,4.37.31,1.56-.29,2.79.13,3.79,1.26,2.13,2.43,4.62,4.5,6.24,7.45.73,1.34,1.52,2.46,1.52,4.01,0,.46.04,1.06.32,1.35,2.3,2.34,1.72,5.46,2.26,8.26.28,1.44.15,2.79,1.42,4.07.96.96,1,2.87.17,4.27-.74,1.25-.68,2.47-.53,3.82.54,4.97,1,9.96,1.49,14.94l-.02-.03Z"/>
      <path class="cls-2" d="m497.31,154.57c0-1.04.07-2.08-.02-3.12-.07-.72-.19-1.53-.57-2.11-1.22-1.86-1.16-3.56-.05-5.5.56-.99.7-2.31.73-3.49.11-5.1.1-10.2.15-15.31.01-1.22-.1-2.46.98-3.41.3-.27.53-.87.46-1.26-.47-2.96,1.3-5.04,2.72-7.28.29-.46.56-1.02.59-1.55.08-1.54.52-2.78,2.14-3.31.25-.08.63-.28.66-.47.42-2.56,3.02-3.97,3.37-6.66.15-1.13,1.17-2.45,2.17-3.11,1.6-1.06,2.62-3.06,4.85-3.19.26-.01.5-.49.74-.76,1.14-1.3,2.4-2.03,4.29-2.16,1.54-.11,3.04-1.16,4.51-1.88,2.24-1.1,4.42-2.32,6.65-3.43.96-.47,4.01.78,4.4,1.71.58,1.38.03,3.34-1.25,4.1-1.72,1.03-3.26,2.39-5.34,2.8-.45.09-1.02.89-1.06,1.4-.15,1.67-1.13,2.84-2.27,3.79-1.91,1.59-2.79,3.81-4.13,5.74-1.88,2.71-1.15,5.4-1.11,8.09.02,1.26,1.06,2.53,1.7,3.76.52,1.01,1.18,1.86-.07,2.96-.41.36-.39,1.81,0,2.34,1.16,1.61,1.11,3.36,1.12,5.15.01,1.2.26,2.14,1.05,3.28,1.1,1.58,2.1,3.53,1.85,5.75-.13,1.19-.24,2.5,1.11,3.25.07.04.12.15.14.24.56,2.43,1.44,4.83,1.6,7.28.17,2.64.92,4.97,2.11,7.24,1.09,2.09,1.8,4.18-.12,6.21-.12.13-.26.35-.23.5.48,2.32-1.09,4.03-1.92,5.88-.91,2.03-1.4,4.58-4,5.43-1.75,2.78-4.58,2.91-7.41,3.06-.84.04-1.75.02-2.49.34-1.15.48-2,.39-3.17-.16-1.12-.53-2.58-.51-3.88-.45-1.29.05-2.23-.46-2.94-1.36-1.44-1.82-2.81-3.69-4.12-5.61-.88-1.29-1.61-2.68-2.39-4.04-.09-.16-.13-.36-.15-.54-.21-1.74.12-3.44-.86-5.2-.75-1.36-.49-3.29-.68-4.96.05,0,.11,0,.16,0l-.02.03Z"/>
      <path class="cls-2" d="m144.98,105.11c-.85,0-1.72-.1-2.55.03-.89.14-1.8.38-2.6.78-1.54.79-3.19,1.01-4.57.1-1.4-.91-2.81-.95-4.32-.96-5.01,0-10.02,0-15.03-.02-1.22,0-2.35-.08-3.46-.91-.72-.54-1.95-.43-2.96-.53-1.1-.11-2.02-.15-3.03-1.04-1.2-1.05-2.93-1.59-4.52-2.05-1.07-.31-2.04-.63-2.47-1.64-.43-1.01-1.11-1.39-2.12-1.59-.49-.09-.89-.6-1.34-.9-1.31-.87-2.43-2.07-4.22-2.02-.48.01-1.08-.37-1.43-.75-1.78-1.89-3.93-3.49-4.88-6.06-.15-.4-.57-.71-.91-1.01-1.27-1.17-2.03-2.42-2.08-4.33-.03-1.36-1.06-2.72-1.71-4.04-1.16-2.32-2.4-4.59-3.55-6.91-.44-.89.76-3.82,1.62-4.2,1.26-.56,3.26-.12,3.97,1.04,1.01,1.65,1.99,3.34,2.78,5.1.37.81.82,1.07,1.59,1.34,1.03.36,2.31.79,2.85,1.61,1.98,3,5.41,3.75,8.11,5.61.41.29,1.1.26,1.65.26,2.78,0,5.58.41,8.09-1.5.99-.76,2.43-1.43,3.87-.18.4.34,1.64.23,2.13-.15,1.58-1.22,3.35-1.1,5.13-1.12,1.19-.02,2.13-.28,3.27-1.02,1.7-1.11,3.66-2.31,6-2.04,1.02.12,2.11.09,2.79-.96.05-.07.15-.15.23-.16,2.74-.09,5.01-2.13,7.82-1.92,2.45.18,4.67-.44,6.67-1.83,2.05-1.43,4.11-1.69,6.26-.26.31.2.68.41,1.03.42,3.29.13,6.14,1.81,8.7,3.42,2.73,1.72,5.21,4.24,5.29,8.07.04,1.78.36,3.55.54,5.33.04.36.03.74-.02,1.1-.17,1.29-.61,2.59-.51,3.86.15,1.95-.7,3.26-2.15,4.27-2.82,1.98-5.66,3.93-8.58,5.77-.64.41-1.6.39-2.42.43-1.32.07-2.61-.03-3.71,1.02-.4.39-1.22.42-1.86.46-1.13.07-2.27.02-3.4.02v.06h.01Z"/>
      <path class="cls-1" d="m548.36,434.44c.34,1.13.72,2.24,1.01,3.38.36,1.4.53,2.92-.41,4.08-1.04,1.28-1.27,2.7-1.39,4.21-.15,1.9-.74,3.54-1.8,5.23-2.12,3.4-3.51,7.28-5.78,10.55-1.59,2.29-1.6,4.72-2.09,7.15-.31,1.56-.21,3.18-1.4,4.51-.38.42-.39,1.24-.44,1.89-.37,4.24-.93,8.47-.97,12.72-.02,2.45.5,5.04,1.4,7.31.78,1.96,1.99,3.72,2.39,5.9.18.99,1.19,1.82,1.84,2.72,1.58,2.18,3.45,4.18,4.33,6.78.25.74.62,1.05,1.35,1.22.49.11,1.14.4,1.33.79.48,1.01.84,2.1,1.04,3.19.11.57-2.12,1.78-2.69,1.47-2.13-1.17-5.06-1.1-6.19-3.87-.03-.08-.12-.17-.19-.2-2.9-.88-4-3.63-5.83-5.62-.38-.41-.7-1.11-1.14-1.2-3.19-.64-4.46-3.44-6.37-5.51-.55-.6-1.12-1.17-1.7-1.74-.13-.13-.37-.18-.46-.33-1.17-1.97-2.28-3.98-3.51-5.91-1.33-2.09-.67-4.8-2.19-6.81-.1-.14-.15-.38-.11-.54.58-2.6-1.34-4.56-1.75-6.88-.32-1.83-.22-3.73-.33-5.6-.04-.71.08-1.6-.29-2.1-.82-1.11-.82-2.24-.7-3.49.16-1.65.54-3.27-.7-4.85-.52-.67-.21-2-.24-3.04-.05-1.49-.31-2.89-.66-4.36-.6-2.5-1.5-5.04-1.2-7.74.13-1.16-.28-2.37-.37-3.57-.06-.73-.18-1.55.09-2.18.57-1.31.52-2.57.18-3.88-.32-1.25-.11-2.34.48-3.53.57-1.14.85-2.49.98-3.77.14-1.41.59-2.45,1.74-3.35,1.88-1.46,3.55-3.18,5.44-4.62,2.25-1.72,4.71-3.02,7.73-2.66,2.7.33,5.49.16,7.88,1.86.5.36,1.27.52,1.9.49,2.36-.11,4.08,1.32,5.89,2.42.73.44,1.22,1.38,1.65,2.18.56,1.05.83,2.26,1.42,3.28,1.08,1.88,1.14,1.84.83,3.99v.03Z"/>
      <path class="cls-2" d="m167.79,498.68c-.07.8.02,1.42-.18,1.92-.82,2.07-.5,4.29-.86,6.35-.41,2.38-.9,5.25-4,6.24-.81.26-1.61,1-2.08,1.73-.88,1.39-2.18,1.66-3.61,1.81-1.19.12-2.23.27-3.33,1.13-.93.72-2.8.84-3.99.44-1.41-.47-2.69-.63-4.12-.52-2.08.16-4.01-.17-6.03-.97-3.62-1.44-7.59-2.05-11.14-3.62-2.73-1.21-5.28-.79-7.97-.72-1.28.03-2.57-.3-3.86-.46-.83-.11-1.68-.37-2.5-.3-4.14.37-8.27.82-12.4,1.26-.46.05-1.05.11-1.32.41-1.11,1.25-2.56,1.58-4.09,1.63s-2.33,1.26-3.2,2.11c-.7.69-1.35,1.15-2.25,1.49-1.57.6-2.82,1.58-3.95,2.94-1.68,2.03-3.33,4.2-5.79,5.47-.35.18-.82.7-.78,1.01.3,2.55-2.14,2.55-3.37,3.61-.62.54-2.4-1.49-2.15-2.57.53-2.3.25-4.95,2.62-6.52.07-.05.16-.14.17-.22.47-3.15,3.06-4.89,4.79-7.2.22-.3.6-.6.62-.92.22-3.5,2.73-5.52,4.91-7.77.31-.32.64-.71.72-1.12.2-1.04.79-1.65,1.72-2.07.4-.18.74-.54,1.05-.87,2.04-2.19,4.27-4.05,7.35-4.6.4-.07.75-.5,1.1-.78.28-.23.56-.7.81-.69,2.99.14,4.78-2.31,7.23-3.29,1.2-.48,2.53-.68,3.82-.85,1.4-.19,2.71-.21,3.86-1.37.62-.62,1.9-.67,2.9-.82,1.47-.23,2.92-.18,4.1-1.51.52-.58,1.73-.63,2.65-.77,1.67-.25,3.15-.78,4.72-1.51,2.31-1.08,4.65-2.43,7.36-2.59,1.09-.07,2.15-.59,3.23-.89.54-.15,1.12-.46,1.61-.37,1.96.36,3.72.07,5.42-.98.41-.25,1.18-.26,1.62-.05,1.8.88,3.69.74,5.57.58,1.13-.1,1.86.29,2.71,1.04,1.79,1.57,3.93,2.76,5.66,4.39,2.1,1.99,4.17,4.09,4.13,7.38-.02,1.4.32,2.81.47,3.99h.05Z"/>
      <path class="cls-2" d="m484.42,99.49c-1.43-.26-2.73-.55-4.01.64-.73.68-2.3.51-3.51.61-1.36.11-2.76-.29-3.9,1.06-.42.5-1.58.43-2.41.52-1.75.2-3.43.37-5.17,1.02-2.67,1-5.64,1.21-8.48,1.74-.55.1-1.24-.01-1.65.28-1.24.87-2.38.68-3.74.25-.89-.28-2.05-.05-2.99.27-1.34.45-2.5.4-3.82-.13-1.28-.51-2.73-.78-4.11-.81-1.37-.03-2.28-.6-3.17-1.49-1.63-1.62-3.47-3.07-4.9-4.86-1.92-2.4-3.73-4.88-3.35-8.35.28-2.62-.02-5.29,1.39-7.71.27-.46.41-1.12.32-1.64-.43-2.39,1.06-4.13,2.05-5.99.39-.74,1.38-1.18,2.13-1.71.67-.47,1.48-.77,2.09-1.31,1.55-1.37,3.29-2.01,5.37-1.95.78.02,1.61-.31,2.37-.61,1.56-.62,3.05-.66,4.64,0,1.1.45,2.31.76,3.49.85,2.28.17,4.37.66,6.46,1.72,3.31,1.68,7.06,2.61,10.17,4.58,2.67,1.69,5.34,1.32,8.07,1.57.66.06,1.42-.05,1.95.25,2.89,1.65,6.04,1.26,9.13,1.32,2.55.05,5.14.23,7.64-.13,2.54-.36,5.15-.99,7.43-2.11,1.88-.92,3.64-2.03,5.61-2.87,1.95-.83,3.43-2.73,5.16-4.09,1.16-.91,2.36-1.79,3.65-2.51.62-.35,1.19-.58,1.15-1.37-.05-1.17.52-1.7,1.66-1.79.35-.03.71-.26,1.01-.47.54-.38,1.22-1.05,1.66-.27.41.73,1.62,1.21,1.02,2.41-.25.5-.57,1.08-.52,1.59.2,1.84-.92,3.02-2.03,4.1-.71.69-1.31,1.27-1.37,2.3-.02.33-.26.71-.52.95-1.34,1.25-2.74,2.45-4.08,3.7-.47.44-1.08.96-1.16,1.52-.39,2.64-2.21,4.12-4.08,5.69-1.04.87-2.38,1.52-2.79,3.05-.1.37-.64.64-1.01.91-.82.59-1.7,1.11-2.47,1.75-.79.66-1.42,1.45-2.61,1.46-1.25,0-1.63,1.84-3.15,1.52-1.18-.25-2.19.28-3.02,1.15-.11.12-.36.18-.53.16-2.71-.3-4.61,1.71-6.96,2.43-1.32.4-2.72.54-4.09.79h-.02Z"/>
      <path class="cls-2" d="m431.54,148.76c.15-1.82.04-3.56,1.28-5.16.6-.77.54-2.16.55-3.27,0-1.34.56-2.24,1.45-3.19,2.37-2.56,5.29-4.46,8.15-6.3,1.51-.97,3.31-1.53,4.54-2.97,3.08-.41,4.82-3.75,8.32-3.57,1.25.07,2.65-1.25,3.84-2.13,2.38-1.75,5.06-2.78,7.8-3.8,2.61-.97,5.09-2.29,7.63-3.47,1.19-.55,2.31-1.38,3.56-1.63,2.14-.43,3.61-2.52,5.97-2.3.16.02.46-.13.48-.24.48-2.94,3.97-2.8,5.17-5.08.52-1,1.66-1.69,2.58-2.45.48-.4,1.08-.92,1.62-.92,1.07,0,2.66-.01,3.09.62.75,1.1.71,2.69-.14,3.99-1.14,1.74-2.25,3.4-2.95,5.49-.82,2.46-1.64,5.09-3.02,7.25-1.03,1.62-1.48,3.71-3.31,4.9-.89.58-1.74,1.6-2.05,2.6-.57,1.8-1.9,2.94-3.04,4.23-1.13,1.29-2.05,2.47-2.22,4.35-.11,1.24-.94,2.68-1.89,3.53-1.79,1.6-2.66,4.04-4.9,5.2-.36.19-.76.66-.79,1.03-.13,1.74-1.29,2.9-2.19,4.21-.32.46-.87.99-.81,1.42.22,1.61-.88,2.41-1.83,3.23-1.67,1.42-2.99,3.31-5.27,3.97-.46.13-.9.72-1.15,1.2-1.26,2.47-3.59,2.7-5.94,3-2.82.36-5.59.88-8.08,2.43-.66.41-1.64.32-2.47.41-3.33.36-6.18-.33-8.5-3.07-1.81-2.13-4.11-3.85-3.99-7.05.02-.45-.15-.97-.41-1.34-1.1-1.59-1.06-3.38-1.07-5.13h-.01Z"/>
      <path class="cls-1" d="m453.42,430.98c.04-.57.13-1.14.1-1.7-.18-3.26,1.66-5.42,4-7.27,1.02-.81,2.12-1.51,3.19-2.25.3-.21.62-.5.96-.54,3.99-.4,7.91-1.95,11.99-.71.36.11.85.1,1.07.33,1.58,1.7,3.72,1.61,5.76,1.93.41.06.83.36,1.13.67,2.66,2.66,4.55,5.93,6.33,9.16.94,1.71,1.2,3.8,2.84,5.17-.08,2.23,1.61,3.69,2.39,5.54.11.26.27.55.24.81-.27,2.82,1.39,4.97,2.49,7.32.83,1.78,1.96,3.54,2.25,5.42.52,3.42,2.43,6.25,3.4,9.46.38,1.25,1.23,2.42,1.34,3.67.18,2.09,2.08,3.67,1.59,5.9-.04.19.21.62.39.66,1.71.44,1.98,1.92,2.69,3.24.8,1.48,2.23,2.62,3.4,3.88,1.28,1.38,2.01,2.86,1.41,4.83-.27.89-.71,1.13-1.57,1.25-2.27.32-3.84-1.13-5.19-2.38-1.57-1.45-3.86-1.41-5.21-3.05-2.12.47-2.98-2.06-4.89-2.08-1.27-1.73-3.7-1.99-4.84-3.98-.57-.99-1.57-1.98-2.61-2.39-1.78-.7-2.76-2.18-3.96-3.4-1.09-1.11-2.21-1.69-3.67-2.23-1.82-.67-3.52-2.05-4.86-3.5-1.29-1.39-3.37-2.14-3.81-4.31-.05-.24-.58-.49-.91-.54-1.51-.23-2.54-1.13-3.47-2.25-.41-.49-.96-.95-1.54-1.21-3.12-1.42-5.13-3.74-6.61-7.25-.45-1.05-1.45-1.95-2.39-2.68-.82-.64-1.32-1.23-1.23-2.32.24-3.12-.66-6.12-.96-9.19-.03-.27-.04-.69-.21-.79-1.4-.77-1.13-2.01-1.01-3.23h-.02Z"/>
      <path class="cls-2" d="m158.88,438.32c.14,1.91.28,3.24-.84,4.48-.42.47-.22,1.65-.04,2.46.38,1.73-.16,3.18-1.29,4.36-2.2,2.29-4.52,4.47-6.8,6.69-.2.19-.45.44-.7.46-1.81.13-2.74,1.42-3.65,2.73-.11.15-.17.44-.3.46-3.02.54-4.36,4.25-7.74,4.1-1.52,1.09-3.22,1.99-4.5,3.31-1.57,1.62-3.49,2.64-5.43,3.45-2.02.85-3.67,2.26-5.58,3.13-2.64,1.2-4.63,3.38-7.43,4.31-1.62.54-2.76,2.29-4.72,2.29-.07,0-.2.11-.2.17-.19,2.84-3.25,3.3-4.42,5.36-.63,1.11-1.6,2.05-2.45,3.03-.35.41-.77.97-1.23,1.04-1.08.17-2.2.09-3.31.11-.21-1.36-.47-2.71-.6-4.07-.03-.29.43-.6.59-.93,1.45-2.89,2.81-5.81,2.87-9.15.02-1.21,1.74-1.82,1.21-3.25,1.41-1.59,1.2-4,2.91-5.52.93-.83,1.69-2.07,2.02-3.27.45-1.59,1.43-2.79,2.33-4.02,1.02-1.39,1.83-2.64,1.81-4.52,0-1.25.7-2.69,1.51-3.73,1.46-1.88,2.11-4.35,4.26-5.73.33-.21.62-.79.6-1.17-.11-1.68.86-2.86,1.75-4.07.57-.78.99-1.52.89-2.57-.05-.53.35-1.17.71-1.64,1.07-1.39,2.2-2.73,3.34-4.06.29-.34.67-.67,1.07-.81,1.48-.51,2.32-1.72,2.83-2.99.52-1.29,1.3-1.67,2.52-1.81,1.12-.12,2.23-.38,3.32-.67.71-.18,1.38-.51,2.05-.79.77-.33,1.53-.7,2.3-1.02.43-.18,1.05-.14,1.32-.44,2.38-2.66,5.6-1.49,8.46-1.93,1.59,1.08,3.27,2.06,4.76,3.26,1.99,1.61,3.73,3.45,3.94,6.23.02.28.06.61.23.81,1.58,1.89,1.55,4.18,1.6,5.94l.03-.02Z"/>
      <g>
        <path class="cls-2" d="m571.27,526.49c0-1.79-.04-3.59.01-5.38.04-1.21.1-2.36.98-3.45.51-.62.46-1.76.5-2.68.09-1.97-.1-3.94,1.37-5.62.43-.49.44-1.43.46-2.17.09-2.83.15-5.67.15-8.51,0-1.33.29-2.46.9-3.73,1.13-2.37,1.42-5-.35-7.36-.82-1.09-.67-2.17.14-3.07s.69-1.52.02-2.45c-.51-.71-.66-1.72-.84-2.62-.13-.64-.11-1.33-.04-1.98.19-1.96-.25-3.78-1.82-4.96-2.29-1.7-2.37-4.31-3.03-6.66-.46-1.63-.9-3.17-1.67-4.73-1.13-2.28-1.27-4.95.23-7.25.62-.95.84-1.8.22-2.57-1.13-1.4-1.03-2.98-1.05-4.58-.03-1.61-.14-3.21-.1-4.82.03-1.27-.38-2-1.73-2s-1.64-.82-1.75-2.03c-.16-1.82.24-3.32,1.73-4.44.36-.27.73-.57,1.15-.7.78-.24,1.97-.1,2.33-.6.86-1.18,1.79-2.62,1.87-3.99.19-3.45.06-6.91-1.13-10.28-.55-1.56-.47-3.35-.66-5.03-.18-1.68-.25-3.38-.54-5.04-.24-1.35.19-2.52.96-3.41,1.48-1.71,1.36-3.35.41-5.2-.32-.63-.54-1.48-.4-2.15.34-1.72.93-3.39.22-5.17-.12-.29.03-.78.21-1.08,2.03-3.35.8-6.97.9-10.48,0-.33-.31-.67-.5-.99-.24-.4-.71-.78-.73-1.18-.11-2.97-.82-5.97.62-8.85.4-.81.69-1.76.72-2.65.09-2.74.08-5.49,0-8.23-.03-.91-.16-2-.67-2.68-.95-1.26-1.01-2.6-.99-4.02.04-3.77.41-7.58.02-11.31-.39-3.8.07-7.54,0-11.31-.03-1.49.18-3.07.69-4.45.77-2.1.87-4.23,1.01-6.4.14-2.15.47-4.29.71-6.43.01-.09.12-.21.09-.26-1.15-2.29-.28-4.27.79-6.31.24-.45-.12-1.54-.56-1.96-.89-.84-.95-1.84-.95-2.85-.01-3.97.03-7.94.08-11.91.01-1.04.16-1.99.93-2.88.48-.56.66-1.54.66-2.34.03-6.62,0-13.24-.06-19.85,0-.72-.1-1.75-.56-2.1-1.22-.91-1.15-2.08-1.15-3.3.02-4.53-.12-9.08.19-13.59.13-1.87-.07-3.67-.09-5.5-.08-6.51-.04-13.03-.04-19.54,0-2.55.07-5.09.03-7.64-.04-2.92.02-5.72.97-8.62.86-2.61.69-5.59.79-8.41.11-2.93-.02-5.86-.01-8.79,0-1.13.07-2.22,1-3.13.4-.39.59-1.17.6-1.78.05-3.97.06-7.94.02-11.91-.01-.93,0-2.03-.48-2.74-1.09-1.62-1.11-3.35-1.11-5.15,0-4.16-.01-8.32-.06-12.48-.02-1.29.16-2.62-1.08-3.65-.41-.34-.53-1.2-.54-1.83-.06-2.64-.1-5.29,0-7.93.04-.89.48-1.78.83-2.64.8-1.97,1.47-3.83-.27-5.77-1.01-1.13-.74-2.74-.28-4.09,1.08-3.17,1.48-6.45,1.27-9.73-.15-2.47.43-5.1-1.18-7.45-.39-.57-.05-1.88.33-2.67.77-1.6.95-3.23.93-4.95-.04-4.07-.05-8.13,0-12.2.02-1.55-.13-3-.97-4.35-.28-.46-.6-1.16-.45-1.57.78-2.05.22-4.03-.09-6.04-.07-.45-.11-1.05.11-1.39,1.09-1.67.9-3.51,1.03-5.36.13-1.86.34-3.55-1.04-5.04-.23-.25-.3-.7-.32-1.06-.16-2.64-.32-5.27-.42-7.91-.05-1.31.16-2.61-.86-3.75-.39-.43-.34-1.24-.53-1.87-.28-.89-.36-1.98-.94-2.6-1.14-1.21-1.01-2.49-.39-3.66.6-1.14.74-2.09.08-3.17-.09-.15-.09-.36-.12-.55-.05-.31-2.14-4.78-2.35-4.91-.38-.23-.77-.56-1.18-.61-1.06-.11-1.88-.48-2.76-1.17-1.42-1.11-2.55-.59-2.97,1.22-.21.91-.48,1.51-1.47,1.82-.67.21-1.23.79-1.83,1.23-.97.73-1.92,1.49-2.9,2.21-1.27.92-2.56,1.28-4.11.45-.7-.38-1.65-.32-2.5-.4-1.5-.13-2.79-.43-4.18-1.3-1.85-1.17-4.13-.91-6.21.08-.82.39-1.72.83-2.59.86-4.63.16-9.26.21-13.89.28-1.61.02-3.21-.05-4.65.92-.34.23-1.05.42-1.28.24-1.93-1.5-4.25-1.08-6.31-.99-2.57.11-5.17.14-7.8.93-2.69.81-5.78.43-8.69.31-1.04-.04-1.99-.99-3.15-.12-.26.19-.92,0-1.33-.18-2.26-.93-4.57-.99-6.93-.49-.52.11-1.14.15-1.61-.04-1.28-.49-2.36-.19-3.52.39-.49.25-1.5.36-1.72.09-.82-1.03-1.77-.79-2.82-.74-1.89.1-3.78.09-5.67.03-2.76-.09-5.49.37-8.3-.31-2.33-.56-4.89-.14-7.35-.18-2.55-.05-5.09-.12-7.64-.22-.54-.02-1.27-.08-1.58-.42-1.05-1.13-2.37-1.04-3.68-1.04-3.31,0-6.62-.04-9.92.08-.86.03-1.84.38-2.54.9-2.1,1.56-4.41,2.39-6.99,2.42-3.12.04-6.24,0-9.35-.04-1.39-.02-2.68-.07-4.08-.68-1.52-.66-3.42-.5-5.16-.55-1.64-.05-3.06-.07-4.03-1.86-.65-1.21-1.95-2.08-2.98-3.09-.26-.25-.62-.68-.85-.63-2.06.47-3.17-1.47-4.88-1.89-.48-.12-1.12-.87-1.13-1.34-.04-1.51-.65-3.13,1.1-4.38.62-.44.61-1.86.76-2.86.28-1.93,1.75-2.6,3.37-1.45,1.37.97,2.69.99,3.96.07.15-.11.29-.29.45-.32,2.68-.52,4.79-2.2,7.14-3.4.86-.44,2.02-.4,3.05-.4,6.24-.03,12.48,0,18.72,0,4.91,0,9.82.03,14.73-.03,2.55-.03,5.09-.3,7.64-.31,2.26,0,4.52.2,6.78.27,1.42.05,2.78,0,3.96-1.09.48-.45,1.41-.62,2.13-.6,2.05.05,4.17-.21,6.1.81.16.09.42.26.51.2,2.39-1.67,4.19,1.12,6.51.81,2.31-.31,4.71.06,7.08.14.37,0,.89-.04,1.09.18,1.75,1.94,4.09.86,6.13,1.23.42.08,1.05-.04,1.32-.32,2.1-2.2,4.57-.98,6.92-.83.54.03,1.25.58,1.55.38,2.02-1.31,4.26-.65,6.38-.77,2.83-.16,5.68.08,8.51-.08,1.84-.1,3.11,1.12,4.7,1.53,1.18-1.34,2.76-1.41,4.38-1.42,1.13,0,2.27-.02,3.4-.11.55-.04,1.29-.08,1.58-.43,1.23-1.45,2.84-1.26,4.45-1.28,1.51-.03,3.02-.24,4.53-.26,1.89-.02,3.78.04,5.39,1.29,1.24.97,3.14.54,4.23,2.08.3.42,1.6.12,2.44.15,3.57.11,7.15.22,10.72.34.28,0,.64.02.82.19,2.13,2.02,4.78,1.28,7.26,1.41,1.76.09,3.53-.21,5.04,1.28.53.53,1.79.35,2.72.44,1.97.2,3.71,1.9,3.96,3.91.06.47.04.95.15,1.41.17.74.45,1.07,1.39.79,3.38-1,6.75-1.39,10.05.45.79.44,1.82.47,2.74.67.79.18,1.24.58,1.54,1.43.84,2.37,1.85,4.68,2.79,7.02.31.78.75,1.54.9,2.36.63,3.48,1.13,6.98,1.76,10.46.3,1.65.77,3.27,1.22,4.89.52,1.87-1.31,3.08-1.27,4.82.05,2.46-.02,4.92.05,7.37.02.74.15,1.59.55,2.17,1.29,1.84,1.31,3.91,1.35,5.99.04,2.17.1,4.36-.07,6.52-.09,1.17-.57,2.33-1.01,3.45-.91,2.3-.79,4.56.13,6.81.21.5.74.91.83,1.41.47,2.69.96,5.38,1.2,8.09.11,1.16-.37,2.37-.56,3.55-.12.74-.42,1.53-.27,2.21.64,2.92-.58,5.52-1.33,8.18-.22.8-.25,1.3.11,2.07,1.15,2.41,1.08,4.82.03,7.36-.85,2.07-1.2,4.21.13,6.48,1.02,1.74,1.07,3.92-.19,5.77-.79,1.15-.83,2.17-.17,3.4.52.96.98,2.07,1.04,3.14.16,3.01.14,6.04.12,9.06-.01,1.57-.11,3-1.2,4.48-1.11,1.52-1.05,4,.04,5.39,1.5,1.92,1.19,3.88,1.29,5.88.1,2.06,0,4.12-.06,6.18-.03,1.03-.06,2.09-.3,3.09-.35,1.43-.75,2.65.09,4.22.74,1.38.23,3.21-.72,4.58-1.11,1.59-1.34,2.95-.04,4.61.59.75.82,1.96.8,2.95-.03,1.86,1.14,3.64.33,5.52,1.15,3.06-.9,5.99-.37,9.02.03.17-.01.4-.11.55-1.67,2.51-.91,5.12-.36,7.74.08.4-.03,1.01-.3,1.29-1.18,1.25-1.07,2.78-1.04,4.28.05,2.45.23,4.9.25,7.35,0,1.41-.33,2.82-.32,4.23.04,5,.17,10,.25,15.01.01.85,0,1.7-.03,2.55-.04,1.32-.24,2.66-.1,3.96.18,1.56,1.06,3.13.89,4.62s-.71,2.89,0,4.38c.11.23.16.66.03.81-1.69,1.92-.5,4.68-1.95,6.69-.2.28.06.88.12,1.34.05.36.29.87.13,1.06-1.57,1.91-.82,4.18-.89,6.25-.04,1.31,1.08,2.65,1.1,3.98.01,1.32-1.01,2.64-1.06,3.98-.17,4.62-.12,9.25-.14,13.88,0,1.12-.15,2.3.96,3.09.14.1.27.31.29.47.26,3.17.99,6.4-.24,9.47-.41,1.01-.45,1.51.06,2.48,1.01,1.92.79,4.01.07,6.05-.34.96-.73,1.97-.76,2.97-.18,6.21-.31,12.42-.38,18.64-.04,3.31.14,6.62.1,9.93-.03,2.26-.21,4.52-.44,6.76-.06.6-.64,1.12-.87,1.72-.69,1.79-.92,3.38.39,5.25,1.6,2.27,2.69,4.87,2.62,7.88-.16,6.89-.11,13.78-.12,20.66,0,1.13.19,2.26.14,3.39-.05,1.01.03,2.37-.56,2.94-1.12,1.08-.98,2.34-1.31,3.58-1.11,4.12.6,8.19.11,12.3-.16,1.3.02,2.65-.02,3.97-.05,1.56-.21,2.91-1.3,4.38-1.17,1.58-1.86,3.5-3.6,4.71-.34.24-.4,1.02-.43,1.55-.06,1.23.02,2.46-.01,3.69-.03,1.47.26,2.98-1.18,4.15-.43.35-.38,1.41-.4,2.15-.07,2.17-.04,4.34-.11,6.52-.05,1.63.01,3.19,1.14,4.55.33.4.47,1.03.5,1.57.05,1.08.7,1.75,1.19,2.61,1.08,1.9,1.68,4.14,2.16,6.31.34,1.54.14,3.2.23,4.81.05,1.03,0,2.1,1.01,2.82.21.15.41.46.42.7.11,1.9.73,3.56,1.61,5.3.58,1.14-.06,2.91-.23,4.4-.06.55-.57,1.11-.48,1.59.41,2.03.17,3.91-.33,5.94-.49,1.96-.2,4.13-.18,6.21.02,1.49-.1,3.01.98,4.32.25.3.09,1.03-.02,1.53-.29,1.27-.65,2.53-1,3.79-.12.44-.16,1.12-.45,1.27-1.78.9-1.37,2.49-1.39,3.96-.02,1.32-.02,2.65-.09,3.97-.03.65.02,1.51-.35,1.91-1.56,1.67-1.2,3.68-1.21,5.63-.02,4.73,0,9.46,0,14.18,0,1.44.07,2.79,1.08,4,.43.52.44,1.38.64,2.09.15.53.14,1.29.49,1.55,1.48,1.09,1.24,2.65,1.33,4.13.18,2.72.33,5.45.49,8.18.01.19,0,.4.07.56,2.13,4.39-.51,7.42-2.92,10.57-1.05,1.37-2.27,2.82-2.69,4.42-.38,1.46-1.02,2.51-2.04,3.44-.95.88-1.64,1.87-2.3,3.01-.7,1.21-2.18,1.96-3.29,2.94-1.68,1.49-3.35,3-5,4.53-1.31,1.21-2.41,2.59-4.19,3.33-1.31.54-2.37,1.58-3,3.15-.66,1.66-1.84,3.07-3.89,3.58-2.79.7-5.52,1.66-8.23,2.63-.85.3-1.37.15-2.06-.31-1.14-.77-2.29-.67-3.34.3-2.21,2.03-4.81,2.65-7.79,2.52-3.49-.15-7,0-10.49.12-.98.04-2.04.31-2.91.78-3.09,1.67-6.15,1.48-9.14-.07-1.75-.9-1.95-.85-3.75.12-2.01,1.09-3.81,2.78-6.38,2.62-.51-.03-1.12.27-1.57.58-2,1.35-4.25,1.47-6.53,1.45-1.51-.01-3.03-.07-4.53-.23-.7-.08-1.72-.26-1.99-.73-.86-1.52-2.01-1.2-2.79-.38-1.83,1.92-3.66,1.4-5.68.53-.63-.27-1.52-.54-2.08-.31-2.12.91-4.3.48-6.45.53-.54.01-1.21-.09-1.62-.4-2.25-1.7-4.84-1.43-7.36-1.25-1.06.08-2.2.55-3.1,1.14-1.77,1.17-3.55,1.35-5.36.4-2.1-1.1-4.39-1.05-6.61-1.29-.86-.09-1.98.17-2.63.71-1.45,1.19-3.04,1.43-4.77,1.33-1.79-.11-3.58-.27-5.37-.44-2.77-.26-5.26.05-6.93,2.72-.32.52-1.23.87-1.9.94-3.44.35-6.9.71-10.32-.13-.54-.13-1.06-.36-1.58-.56-.34-.13-.89-.5-.98-.4-1.5,1.49-2.72-.14-4.07-.27-2.2-.21-4.31-.44-6.52.92-2.08,1.29-4.65,1.26-6.85-.54-.94-.77-2.02-1.44-3.14-1.89-1.91-.76-3.8-.95-5.52.7-1.13,1.08-2.42,1.59-4.08.74-.97-.49-2.2-.45-3.31-.68-.91-.19-1.86-.31-2.71-.66-.79-.33-1.38-.29-2.11.15-.8.48-1.81.64-2.55,1.18-2.39,1.78-5.15,1.59-7.87,1.67-1.33.04-2.5.33-3.77.87-2.32.99-4.81,1.44-7.12-.53-.69-.59-1.9-.74-2.89-.8-1.21-.07-2.45.18-3.67.3-1.71.16-3.26.23-4.67-1.25-.97-1.02-2.56-.95-4.04-.85-2.34.16-4.68.13-7.03.18-.84.02-1.87-.28-2.48.1-2.13,1.33-3.9.17-5.78-.51-1.31-.47-2.63-.98-4-1.21-2.81-.48-4.08-1.49-4.23-4.33-.1-1.94-1.54-2.9-2.41-4.28-.38-.6-.99-1.06-1.55-1.53-1.48-1.25-3.08-2.13-4.96-2.85-3.52-1.36-7.06-.95-10.6-1.19-1.69-.11-2.63,1.05-3.48,2.09-.81.98-1.69,1.53-2.88,1.44-2.47-.18-3.52,1.43-4.11,3.35-.35,1.13-.66,1.85-1.97,1.93-1.65.1-2.36,1.71-3.65,2.43-.98.55-1.87,1.24-2.85,1.79-.39.22-1.02.46-1.32.29-2.61-1.43-4.22.82-6.06,1.77-.95.49-1.78.97-2.83.94-5.67-.16-11.34-.31-17-.58-1.09-.05-2.15-.81-3.25-.86-3.11-.15-6.22-.11-9.33-.12-.36,0-.79.11-1.07.32-2.16,1.59-4.62,1.52-7.08,1.28-1.56-.15-2.93-.1-4.25.99-1.02.84-2.25.79-3.3-.3-.7-.73-1.51-1.38-2.34-1.95-.53-.36-1.18-.58-1.8-.76-.9-.27-1.87-.34-2.74-.69-.75-.31-1.39-.57-2.09.02-.14.12-.38.28-.5.23-2.2-.95-4.16.64-6.26.6-1.41-.03-2.76.01-3.87-1.23-.89-1-2.56-1.09-3.56-.15-1.33,1.26-2.84,1.31-4.46,1.39-1.41.07-2.81.3-4.22.47-.19.02-.4.2-.54.14-2.98-1.1-5.71.65-8.59.72-1.32.03-2.56.11-3.82-.65-.82-.5-1.98-.47-3-.6-1.48-.19-3.06-.05-4.15-1.42-.16-.2-.5-.34-.75-.35-3.3-.08-6.59-.17-9.89-.12-.45,0-1.05.72-1.31,1.24-1.27,2.47-1.78,2.75-4.49,2.62-.81-.04-1.74.08-2.43.46-1.38.76-2.81,1.03-4.35,1.07-.64.02-1.43.07-1.9.43-1.65,1.29-3.52,1.15-5.41,1.13-1.79-.02-3.59.04-5.38.1-1.13.04-2.1.36-3.13,1.03-1.93,1.27-4.43,1.34-6.24.24-2.06-1.25-4.1-1.21-6.23-1.3-1.04-.04-2.08.01-3.12.09-.45.03-1.15.11-1.29.4-.78,1.57-2.18,1.28-3.46,1.26-2.93-.03-5.86-.09-8.79-.26-.78-.05-1.59-.44-2.28-.86-1.62-.97-3.51-1.23-4.7-.02-1.18,1.2-2.49,1.21-3.88,1.23-1.42.02-2.83-.13-4.25-.15-1.51-.02-3.03-.06-4.53.07-2.63.23-5.15,1.25-7.92.13-1.49-.6-3.25-.03-4.87.84-1.81.98-3.9,1.42-5.8-.19-.4-.34-1-.46-1.53-.61-.45-.12-1.03,0-1.38-.23-2.49-1.66-5.51-2.22-8.02-3.76-1.13-.69-2.05-1.96-2.7-3.17-1.24-2.31-3.31-3.16-5.61-3.76-.36-.09-.76-.14-1.13-.09-2.37.31-3.96-.81-5.08-2.75-1.35-2.36-3.83-3.88-4.79-6.56-.17-.47-1.24-.71-1.93-.87-1.17-.27-2.5-.12-3.13-1.52-.07-.15-.3-.34-.43-.33-2.14.22-3.41-1.74-5.4-2.08-1.39-.23-2.99-.9-3.9-1.91-1.18-1.29-2.97-1.12-4-2.2-1.97-2.05-3.74-4.29-5.55-6.49-.71-.86-1.25-1.87-1.94-2.75-.26-.33-.71-.66-1.11-.73-2.47-.44-3.52-2.83-5.51-3.9.12-2.08-2.19-3.25-2-5.36.02-.28.03-.63-.12-.83-2.56-3.65-1.56-7.79-1.61-11.78-.02-1.79,0-3.59-.06-5.38-.04-1.2,0-2.35-1.16-3.32-.55-.46-.49-1.75-.53-2.68-.1-2.44.24-4.93-1.49-7.05-.37-.45-.41-1.26-.4-1.91.04-2.64.13-5.28.25-7.92.05-1.21.06-2.44,1.08-3.41.35-.33.42-1.05.46-1.6.17-2.93.3-5.87-1.27-8.54-.62-1.05-.48-2.13.26-2.9,1.26-1.31,1.28-2.88,1.32-4.48.03-1.32-.05-2.65-.03-3.97.02-1.12.48-2.09.86-3.13.74-2.06,1.81-4.08,1.1-6.64-.69-2.48-.5-5.23-.54-7.87-.04-2.64.06-5.29.18-7.93.04-.81.16-1.75.6-2.4,1.36-2.03,1.32-4.12.39-6.2-.48-1.08-.41-1.91.09-2.93.4-.82.6-1.81.62-2.73.08-2.74.16-5.49-.02-8.22-.09-1.46-.71-2.88-1.1-4.32-.19-.72-.54-1.43-.57-2.15-.09-2.17-.11-4.35-.03-6.52.03-.69.26-1.64.75-2,1.25-.91,1.13-2.02.5-2.98-1.14-1.72-1.11-3.56-1.02-5.46,0-.28-.03-.57,0-.85.26-3.24-.59-6.15-2.5-8.76-.22-.3-.67-.78-.59-.88,1.3-1.83-.44-3.37-.43-5.05,0-.66-.14-1.59.22-1.92,1.51-1.37,1.06-3.08,1.16-4.73.06-.92.18-2.02.7-2.7.91-1.19.98-2.46.87-3.76-.24-3.07.09-6.17-1.04-9.22-.54-1.45-.07-3.36.26-4.99.18-.88.31-1.5-.16-2.35-.38-.7-.47-1.65-.41-2.47.18-2.79-.55-5.7,1.01-8.33.05-.08.09-.22.05-.27-1.31-1.89.51-3.48.49-5.22-.02-1.49-.19-3.02-.6-4.44-1.06-3.72-1.19-7.37.1-11.05.34-.96.65-2.02.61-3.02-.12-2.89.19-5.86-1.38-8.55-.35-.61-.38-1.46-.39-2.21,0-2.17-.02-4.36.14-6.52.08-.98.64-1.91.88-2.88.26-1.07.49-2.16.54-3.25.04-1.02.05-2.15-.32-3.08-1.06-2.7.58-5.51-.48-8.19-.11-.28.08-.73.25-1.05,1.04-1.92.85-3.81-.1-5.68-.98-1.94-.77-4.04-.8-6.1,0-.27.06-.62.23-.8,1.75-1.77,1.38-4.02,1.4-6.17,0-2.08.04-4.16-.04-6.24-.07-1.88-.22-3.72-1.11-5.5-.74-1.48-.38-3.1.12-4.69.47-1.5.95-3.08.97-4.63.06-3.58-.22-7.17-.24-10.76,0-2.99-.36-6.05,1.09-8.87-.69-1.51.5-2.53.86-3.78.4-1.38.5-3.06-.61-4.32-.6-.68-.81-1.18-.21-1.95.94-1.22,1.24-2.51.26-3.91-.17-.24-.09-.7-.04-1.04.23-1.56.69-3.12.7-4.69.03-5.19-.14-10.39-.15-15.59,0-1.88.21-3.76.34-5.64.08-1.22.71-2.12,1.67-2.84.75-.56,1.41-1.26,2.23-1.68.97-.5,1.23-1.05.73-2.02-.15-.3-.15-.72-.11-1.07.17-1.57.53-3.14.53-4.7,0-5.48-.09-10.96-.18-16.44,0-.63-.05-1.45-.43-1.85-1.97-2.05-.76-4.47-.95-6.72,0-.17.08-.44.21-.5,1.91-.95,1.27-2.69,1.34-4.21.2-4.9.29-9.81.65-14.69.17-2.33.84-4.62,1.33-6.92.09-.44.32-.92.64-1.21,1.14-1.06.85-2.16.25-3.33-.3-.58-.65-1.15-.8-1.76-.22-.9-.03-1.67,1.04-1.99.63-.19,1.28-.44,1.79-.83,1.16-.88,2.58-1.32,3.66-.49,1.15.89,2.66,1.88,2.23,3.85-.1.45,0,.94,0,1.42-.02,2.4.04,2.27,2.39,3.42,1.27.63,2.39,1.55,3.1,3.05,2.17,4.59,1.9,9.36,1.43,14.16-.06.62-.33,1.34-.74,1.77-.91.95-.83,2.06-.8,3.19.04,1.25.46,2.26,1.9,2.36,1.34.09,1.72.92,1.79,2.09.11,1.98.02,3.63-1.63,5.36-2.3,2.4-2.36,5.83-2.13,9.08.03.4.36.92.71,1.13.92.54,1.15,1.52.84,2.21-1.13,2.48.04,4.92-.11,7.38-.15,2.43.18,4.9.36,7.35.06.74.12,1.6.52,2.18,1.64,2.39,1.13,4.82.47,7.33-.17.66-.23,1.54.08,2.1,1.21,2.24.89,4.58.69,6.93-.09,1.03-.28,2.08-.15,3.09.15,1.12.11,1.97-.84,2.77-.44.37-.78,1.21-.71,1.78.3,2.46-.51,5.08,1.16,7.37.6.82.76,1.9-.13,2.87-.41.45-.73,1.13-.76,1.72-.18,3.39-.28,6.78-.37,10.17-.03.95.22,1.68,1.02,2.46.7.67,1.04,1.99,1.09,3.04.1,2.26.05,4.54-.22,6.78-.29,2.46.54,4.43,2.36,5.86,1.08.85,1.23,1.82,1.29,2.94.08,1.51.08,3.02.12,4.54.03,1.22-.02,2.36,1.01,3.39.88.88.44,2.13-.13,3.15-.27.48-.82.87-.9,1.36-.43,2.66-.46,5.43-1.21,7.99-.58,1.96-.51,3.87-.64,5.81-.04.56.1,1.16-.03,1.7-.4,1.67,1.94,2.94.87,4.45-1.12,1.59-.7,3.26-.95,4.89-.24,1.58-.37,3.18-.4,4.78-.04,1.79-.04,3.52-.87,5.24-.31.64.07,1.89.54,2.59.85,1.24.92,2.57.52,3.79-.54,1.68-1.22,3.44-2.31,4.77-1.01,1.23-1.37,2.45-1.34,3.87.09,4.54.31,9.07.33,13.61,0,2.61.14,5.25-1.24,7.72-.84,1.51-.62,3.47-2.09,4.85-.4.38-.23,2,.25,2.57,1.46,1.7,1.29,3.62,1.37,5.59.2,4.97-.6,9.95.08,14.93.25,1.85.08,3.78-.02,5.66-.04.72-.17,1.73-.65,2.09-2.07,1.59-1.14,3.52-.5,5.13.62,1.56.85,3.01.82,4.65-.06,3.21.07,6.43.12,9.64.02,1.35-.4,2.48-1.12,3.69-1.3,2.21-1.18,4.83-.09,7.01.52,1.05.81,1.97.99,3.07.27,1.69-.2,3.59,1.59,4.89.42.3.3,1.42.32,2.17.14,4.62.3,9.25.36,13.88.03,2.36-.18,4.71-.23,7.07-.11,5.76-.24,11.52-.26,17.28,0,2.25.37,4.51.38,6.76.02,5.66-.02,11.33-.17,16.99-.04,1.48-.41,2.98-.86,4.41-.39,1.25-.44,2.23.35,3.43,2,3.08,2.64,6.51,2.46,10.21-.17,3.67.07,7.37.19,11.05.05,1.43,1.07,2.86-.08,4.3-.16.2-.06.81.13,1.07,1.55,2.17,1.35,4.65,1.4,7.11.03,1.54-.46,3.29,1.54,4.09.28,2.05,2.1,3.49,2.05,5.75-.05,2.29,1.73,4.04,3.99,4.5.54.11,1.12.24,1.58.53,2.16,1.38,4.58,1.36,6.86.89,1.67-.34,3.23-1.41,4.74-2.32,3.24-1.95,6.33-1.83,9.56.09,2.15,1.28,4.62,1.13,6.79.07,1.39-.67,2.21-.82,3.5.21,1.62,1.28,3.59,2.05,5.75,2.1,2.08.05,4.16.13,6.24.16,1.69.02,3.31-.07,4.85,1.06,1.21.89,2.6.51,3.77-.76.97-1.06,1.57-1.3,3.2-.7,2.7.99,5.76,1.11,8.46-.55,1.53-.94,3.21-1.11,4.53-.12,1.59,1.19,3.21.95,4.54.28,1.81-.92,3.61-.99,5.49-.97,1.5.01,2.72-.31,3.6-1.72.81-1.3,2.18-1.68,3.7-1.67,2.46,0,4.92-.19,7.37-.08,1.48.06,2.95.46,4.39.83,2.6.67,5.1,1.08,7.74-.08,3.57-1.59,7.4-1.22,11.18-1.06,5.09.22,10.16.96,15.26.17.83-.13,1.73-.1,2.54.1,4.81,1.14,9.49.1,14.2-.66.28-.05.59-.3.81-.23,3.6,1.16,7.57.26,11.07,1.93,1.4.67,2.73.56,4.07-.15,1.32-.71,2.65-1.41,3.99-2.09,1-.51,2.13-.62,2.95.12,1.44,1.29,3.1,1.24,4.8,1.19,1.71-.05,3.34,0,4.98.74.83.37,2.09.27,2.97-.07,1.98-.77,3.85-.76,5.78-.01.52.2,1.09.35,1.64.38,5.47.26,10.93.51,16.4.7,1.8.06,3.44-.26,5.06-1.38,1.98-1.37,4.57-1.29,6.53-.2,3.42,1.91,6.94,1.54,10.47,1.26,2.42-.19,4.8-.96,7.22-1.22,3-.33,6.02-.44,9.03-.57,1.42-.06,2.7-.13,4.02-.97,1.02-.66,2.49-.72,3.79-.83,2.24-.18,4.54.26,6.68-.86.42-.22,1.13-.09,1.62.09,2.31.88,4.6.73,6.94.13.58-.15,1.29-.14,1.85.06,1.32.47,2.54.44,3.85-.06.66-.25,1.55-.44,2.17-.21,3.41,1.27,6.92.42,10.37.62.6.04,1.22-.5,1.86-.57,1.38-.16,2.98-.67,4.13-.18,2.11.88,4.22.92,6.38.96,1.9.04,3.57.46,5.36,1.34,1.74.86,4.09.95,6.09.72,4.38-.5,8.68.23,13.02.36.73.02,1.45.37,2.18.54,1.68.39,3.33.52,5.01-.15,1.98-.79,4-1.15,5.95.18.22.15.54.22.82.21,4.38-.02,8.82,1.44,13.11-.67.64-.32,1.48-.24,2.23-.33,1.14-.13,2.15-.33,3.02-1.3.48-.54,1.47-.79,2.26-.87,1.59-.16,3.31.21,4.79-.24,1.87-.58,3.53-.25,5.37-.09,4.6.39,9.25.26,13.88.26.71,0,1.49-.3,2.1-.68,1.56-.97,3.24-.95,4.94-.82.52.04,1.17.25,1.5.62,2.32,2.55,5.31,3.06,8.5,2.82,1.48-.11,2.94-.55,4.42-.76.49-.07,1.05.04,1.53.21.89.31,1.74.7,2.6,1.08.99.44,1.92.69,2.91-.09.32-.26.91-.31,1.36-.27,5.65.42,11.29-1.02,16.97,0,2.11.38,4.33.13,6.51.13,1.33,0,2.5.14,3.68,1.06,1.18.93,2.57,1.89,4.4.98.62-.31,1.72-.07,2.41.29,1.54.82,3.24,1.16,4.75,2.29,1.69,1.27,3.96.78,5.87-.36.54-.32,1.28-.88,1.71-.73,2.9,1,5.7-.41,8.57-.22,1.81.12,3.21.53,4.46,1.92,2.1,2.32,4.6,2.45,7.18.65,1.62-1.13,4.49-1.07,6.12.02.75.5,1.67,1.14,2.47,1.09,2.39-.16,4.91.25,7.1-1.29.92-.65,1.93-.44,2.9.23,1.81,1.24,3.68,1.07,5.61.17.9-.42,1.92-.77,2.9-.8,3.4-.11,6.81-.08,10.21-.08,1.63,0,3.19-.13,4.52-1.28.39-.34,1-.47,1.53-.58,2.02-.44,2.1-.5,2.41-2.45.52-3.32,1.73-6.54,1.45-9.99-.04-.55.47-1.16.76-1.73.32-.64.72-1.26,1.01-1.91.15-.33.02-.9.24-1.08,2.44-1.94,1.19-4.69,1.57-7.07.23-1.47.04-3.01.04-4.51h.14l-.08.02Z"/>
        <path class="cls-2" d="m343.01,325.49c0-2.07-.04-4.15.01-6.22.04-1.48-.15-3.05,1.2-4.21.31-.26.45-.83.49-1.28.33-3.23,1.51-6.18,2.85-9.08.45-.97-.02-1.5-.92-1.59-1.5-.14-3.02-.12-4.52-.21-1-.06-2.1.13-2.66-1.14-.14-.32-.73-.52-1.15-.62-.45-.11-.95-.09-1.41-.03-2.64.33-4.41-.82-6.09-2.83-.87-1.04-1.92-2.36-3.79-2.5-2.89-.21-3.67-2.13-2.18-4.74.19-.32.58-.59.62-.92.1-.73.34-1.72-.01-2.2-1.38-1.86-.45-3.35.54-4.83,1.2-1.79,1.24-4.15,2.92-5.68.34-.31.62-.94.94-.95,3.02-.12,4.23-3.3,6.88-4.04.43-.12.84-.8.99-1.3.49-1.59,1.7-1.88,3.09-1.93,1.04-.03,2.09-.13,3.12-.05,3.18.27,6.08-2.59,7.95-5.07,1.27-1.69,1.45-3.38,1.38-5.3-.04-.94.12-1.88.16-2.83.04-1.01.41-1.77,1.27-2.39,1.27-.91,2.18-2.09,2.09-3.79,0-.18-.01-.46.1-.55,1.69-1.37,1.22-3.41,1.73-5.16.31-1.07,1.11-2.14,1.96-2.89,1.07-.95,1.22-2.05,1.22-3.3-.01-1.7.18-3.19,1.56-4.57.86-.86,2.17-1.83,1.96-3.52-.04-.29.68-.74,1.12-.99,1.5-.88,3.02-1.65,4.39-2.82,1.1-.94,2.88-1.3,4.4-1.44.78-.07,1.56.32,2.33-.3.22-.17.87-.18,1.01,0,.85,1.06,2.04.85,3.14.92,2.01.13,3.39,1.57,5.02,2.47.34.19.52.76.67,1.2.53,1.49,1.23,2.97,1.48,4.52.27,1.72,1.31,2.84,2.29,4.09,1.54,1.96,3.63,3.64,3.57,6.49,1.7,1.27,1.29,3.61,2.57,5.12.35.41.64,1.02.65,1.54.02,1.44.88,2.37,1.66,3.44,1.23,1.7,2.45,3.45,3.34,5.33.57,1.21,1.34,1.42,2.41,1.46.28.01.57,0,.85,0,10.02-.12,20.03-.26,30.05-.32,1.67,0,3.32.17,4.9,1.1.98.58,2.37.74,3.54.64,2.07-.18,3.43.96,4.53,2.29.58.69.94,1.24,1.89,1.35,1.66.19,2.49,2.27,4.41,2.04.14-.02.39.58.53.91.28.69.35,1.56.81,2.07,1.29,1.39,1.05,2.65.15,4.09-.38.62-.58,1.39-.7,2.12-.19,1.2-.03,2.49-1.29,3.27-.13.08-.18.32-.24.5-1.71,5.21-3.8,7.97-8.56,11.75-.86.68-1.46,1.67-2.27,2.42-1.01.94-1.97,1.96-3.65,1.2-1.97-.89-3.19.97-4.4,1.84-1.4,1-2.82,2.05-4.24,3.07-.69.5-.82.81-.41,1.58.42.79.75,1.69.86,2.57.27,2.2,1.25,3.84,3.13,5.07,1.91,1.25,3.3,2.94,3.71,5.29.09.52.41,1.02.66,1.5.13.25.35.44.54.66,1.25,1.42.04,3.53,1.56,5,1.34,1.3.73,3.23.73,4.9,0,.57-.41,1.16-.7,1.71-.21.39-.82.78-.77,1.08.34,1.86-1.28,2.64-2.17,3.61-1.24,1.35-2.81,2.36-5.05,2.21-3.67-.26-7.37-.04-11.06-.02-.28,0-.59.05-.85-.04-.84-.32-1.66-.95-2.5-.98s-1.69.6-2.57.79c-.41.09-1.07,0-1.33-.28-1.58-1.69-3.67-1.28-5.58-1.34-1.84-.05-3.79-.26-5.37,1.22-.42.39-1.23.37-1.87.5-1.61.33-3.33-.24-4.83,1.09-1.64,1.44-2.54-1.45-4.28-1.01-1.54.39-3.14-.2-4.52,1.51-.91,1.13-2.72,1.85-4.59,1.75-2.26-.11-4.54,0-6.8.19-.99.08-2.21.32-2.85.96-1.18,1.16-2.49,1.2-3.91,1.21-2.83.02-5.67,0-8.5.04-1.69.02-3.36.04-4.98.82-.78.38-1.88.39-2.75.2-1.74-.37-3.42-1-5.12-1.53-.18-.06-.44-.1-.51-.23-1.36-2.58-4.47-3.63-5.59-6.39-.24-.6-.39-1.27-.4-1.91-.05-2.46-.02-4.91-.02-7.37h.03Z"/>
        <path class="cls-1" d="m249.63,336.25h-5.11c-.57,0-1.17.1-1.69-.06-.85-.27-1.63-.97-2.47-1.03-.73-.04-1.49.64-2.27.84-.4.1-.94-.06-1.35-.26-3.77-1.88-7.48-1.87-11.5-.02-.66.3-1.46.3-2.2.44-1.44.28-2.93-.12-4.32.93-1.43,1.09-2.45-1.27-4.06-.88-1.55.37-3.46-.51-4.5,1.49-.1.2-.48.31-.74.36-2.49.48-4.96,1.09-7.48,1.37-2.5.28-5.08-.17-7.17,1.92-.53.53-1.79.42-2.71.44-3.4.07-6.81,0-10.21.13-1.38.05-2.74.51-4.11.75-.64.11-1.33.3-1.92.17-1.64-.38-3.25-.91-4.87-1.4-.18-.05-.41-.11-.51-.24-1.84-2.52-4.86-4.05-6.03-7.12-.2-.52-.25-1.11-.25-1.67-.03-2.93-.03-5.85-.03-8.78,0-1.41,0-2.82.05-4.23.05-1.5.32-2.86,1.1-4.29,1.01-1.85,1.35-4.07,2.01-6.13.37-1.15.77-2.3,1.22-3.42.67-1.7.26-2.43-1.66-2.61-1.03-.1-2.08-.02-3.12-.08-1.19-.06-2.49.21-3.19-1.26-.14-.3-.79-.43-1.23-.5-.55-.09-1.14-.11-1.7-.02-2.41.38-3.93-1-5.46-2.56-1.25-1.27-2.41-2.65-4.48-2.88-1.76-.2-2.62-1.86-1.81-3.69.86-1.93,1.34-3.66.2-5.62-.2-.34.15-1.05.35-1.55.75-1.92,1.38-3.91,2.39-5.69.68-1.21,1.43-2.68,3.23-2.77.89-.05,1.52-.47,2.09-1.23.55-.72,1.39-1.32,2.22-1.7,1.26-.58,2.28-1.27,2.79-2.62.43-1.13,1.46-1.42,2.53-1.5,1.04-.08,2.09-.17,3.12-.06,4.42.46,8.15-4.08,9.45-6.97.29-.65.19-1.48.23-2.23.07-1.23.13-2.45.14-3.68,0-1.23.42-2.2,1.52-2.84,1.15-.67,1.74-1.67,1.78-3.02.03-.95.22-1.84,1.08-2.5.31-.24.53-.86.47-1.26-.35-2.42,1.27-4.01,2.51-5.65.69-.92,1.12-1.78.99-2.81-.33-2.48.86-4.28,2.4-5.96.25-.27.6-.47.77-.78.48-.88,2.25-2.93,2.99-3.46,1.03-.75,1.93-1.75,3.06-2.28,1.16-.54,2.54-.64,3.82-.92.89-.19,1.79-.37,2.68-.55.27-.05.64-.23.8-.12,2.23,1.57,5.25.99,7.43,2.88.92.79,1.51,1.46,1.8,2.65.48,1.98,1.01,4,1.92,5.8.74,1.48,2.07,2.65,3.13,3.98.93,1.17,1.45,2.51,2.05,3.88.81,1.87,1.41,3.79,2.15,5.67,1.5,3.81,4.31,6.87,6.09,10.52.46.93,1.07,1.23,1.97,1.28.47.02.94.02,1.42.02,8.51-.08,17.01-.16,25.52-.24,1.42-.01,2.84-.13,4.25-.06,1.67.09,3.33.08,4.89,1.1.86.56,2.17.7,3.25.61,2.32-.17,3.91.85,5.19,2.61.16.22.32.67.45.66,1.96-.15,2.87,1.99,4.69,2.11.36.03.89.12,1.02.36.61,1.12,1.01,2.37,1.67,3.46.77,1.27.49,2.25-.36,3.34-.37.48-.49,1.21-.58,1.85-.19,1.36.16,2.9-1.43,3.73-.13.07-.15.33-.21.51-1.9,5.46-3.29,7.45-8.45,11.7-.65.53-1.44,1.02-1.83,1.71-.83,1.48-2.1,1.84-3.58,1.71-1.6-.13-2.82.33-4.05,1.42-1.56,1.39-3.37,2.51-5.12,3.66-.71.46-1.03.97-.42,1.56.94.9.91,2.01,1.03,3.14.2,2,1.05,3.55,2.91,4.54,2.12,1.13,3.04,3.18,3.78,5.33.21.62.28,1.37.67,1.83.9,1.06,1.39,2.17,1.32,3.59-.02.51.24,1.14.58,1.53,1.53,1.71,1.09,3.75.93,5.68-.05.6-1.21,1.11-1.25,1.69-.15,2.56-2.15,3.62-3.65,5.16-.68.7-1.28,1-2.16,1h-6.81v.09h-.05Z"/>
        <path class="cls-1" d="m31.98,52.03c0,2.45.03,4.91-.01,7.36-.03,1.69.05,3.44-1.35,4.75-.27,2.76-1.24,5.54.46,8.24.52.83.92,1.89.94,2.86.06,3.31-.07,6.62-.16,9.92-.01.46-.06,1.09-.35,1.33-1.49,1.21-1.25,2.86-1.23,4.43.05,3.5.24,6.99.23,10.49-.01,4.16-.16,8.31-.28,12.47-.01.45-.08,1.08-.37,1.31-1.65,1.32-1.74,3.14-1.5,4.92.26,1.9-1.12,2.86-2.14,3.69-1.16.94-1.4,1.88-1.37,3.15.04,1.42.05,2.83.11,4.25.15,3.46-2.28,5.12-5.47,3.56-1.22-.6-2.14-1.77-3.27-2.57-1.72-1.22-2.22-2.88-2.11-4.89.08-1.53-.54-2.87-1.1-4.3-.92-2.38-1.87-4.62-3.62-6.53-.44-.47-.5-1.42-.5-2.15,0-2.92.05-5.85.13-8.77,0-.46.12-.96.34-1.36,1.86-3.39.87-7.03,1-10.57,0-.27-.04-.66-.22-.8-1.78-1.4-1.34-3.42-1.39-5.23-.09-3.68,0-7.37.02-11.06,0-.57.17-1.16.06-1.7-.3-1.45,1.93-2.31.7-4.14-.69-1.03-.54-2.71-.57-4.1-.08-4.34-.07-8.69-.09-13.03,0-.19.03-.38.08-.56.78-3.08,2.06-6.08,1.64-9.37-.03-.24.12-.57.28-.77,1.57-1.94,2.78-4.06,3.43-6.49.09-.34.63-.73,1.01-.79,1.73-.29,3.57.02,4.97-1.57.36-.41,1.44-.21,2.19-.26.85-.06,1.74.06,2.53-.18.5-.15,1-.77,1.19-1.29.21-.59.13-1.32.05-1.97-.5-3.84,2.22-5.47,4.88-7.12.85-.53,1.72-1.06,2.62-1.51.48-.24,1.05-.32,1.59-.45.45-.11,1.15-.03,1.34-.31,1.21-1.81,2.97-1.2,4.61-1.21,2.93-.02,5.86-.08,8.79-.08,1.21,0,2.42-.04,3.42.99.39.41,1.21.54,1.84.56,1.98.08,3.97.09,5.95.02.63-.02,1.49-.16,1.81-.58.92-1.2,2.12-1.06,3.34-1.07,1.7,0,3.4-.03,5.11,0,1.19.02,2.36-.18,3.2,1.21.54.89,2.48.74,3.2-.23.85-1.16,1.4-.77,2.29-.15.66.46,1.53.78,2.33.81,2.08.09,4.16.04,6.24-.06.6-.03,1.27-.31,1.75-.68,1.23-.93,2.3-1.07,3.48.11.25.25,1.26.27,1.36.09.65-1.17,1.71-1.04,2.73-1.04,6.62-.03,13.24-.05,19.86-.08,8.41-.03,16.82-.07,25.23-.08,1.98,0,3.97.16,5.95.05,1.27-.07,2.52-.51,3.79-.76.34-.07.8-.18,1.03-.02.83.58,1.38.36,1.89-.4.1-.14.29-.31.45-.32,3.59-.06,6.81-2.29,10.48-1.82.72.09,1.55.22,2.11.62,1.26.91,2.63.89,4.06.9,1.35,0,2.4-.23,2.73-1.8.28-1.38,1.44-1.62,2.62-1.69,2.52-.15,4.48-1.43,6.26-3.06.91-.84,1.89-.75,2.88-.27.5.25.86.79,1.37.98.87.33,1.68.53,2.56-.36.81-.83,1.97-1.35,3.05-1.85.45-.21,1.24-.21,1.62.06,1.28.91,2.69.75,4.09.76,1.99,0,3.86.07,5.58,1.52.79.66,2.33.47,3.53.59,1.36.14,2.85-.28,3.85,1.19.2.29.86.38,1.31.38,1.98.02,3.97-.02,5.95-.05,3.96-.06,7.92-.21,11.88-.19,6.98.03,13.97.15,20.95.22.94,0,1.89-.05,2.83-.04,1.22,0,2.34.09,3.4-.94.69-.67,2.02-.93,2.8.09,1.1,1.43,2.45.97,3.57.45,2.61-1.21,5.37-.83,8.07-1.02.69-.05,1.55.24,2.09.68.98.8,2.06.96,3.19.84,5.85-.64,11.69.05,17.53.04.64,0,1.49.03,1.9.42,1.36,1.29,3.06,1.16,4.68,1.57,1.88.47,3.57.28,5.44.04,3.26-.41,6.6-.25,9.91-.25,1.54,0,2.9-.27,4.32-1.02,1.18-.63,2.72-.59,4.12-.79,1.02-.14,2.06-.05,2.82-1.02.3-.38.95-.65,1.46-.68,2.64-.14,5.28-.21,7.92-.23,1.22,0,2.45.19,3.67.25,3.28.16,6.62-.17,9.76,1.23.42.19.93.16,1.39.24,3.98.71,8,1.28,11.93,2.19,2.26.53,4.25,1.84,5.89,3.55.3.31.53.81.57,1.24.22,2.55.16,5.05-.9,7.49-1,2.29-2.67,3.97-4.25,5.81-.97,1.13-2.01,1.39-2.9.73-2.47-1.81-5.29-1.31-7.93-1.35-7.17-.12-14.35.06-21.53.17-1.26.02-2.67-.35-3.49,1.22-.17.32-1.02.28-1.56.42-.7.19-1.5.24-2.08.62-.57.38-.93.42-1.51.11-.37-.2-1.07-.37-1.28-.17-1.92,1.72-4.31,1.32-6.5,1.35-6.33.09-12.67-.03-19-.1-1.88-.02-3.79.08-5.31-1.45-.33-.33-1.06-.34-1.6-.34-3.59.04-7.18.17-10.76.17-4.53,0-9.06-.11-13.59-.14-1.66,0-3.15.03-4.75,1.15-1.58,1.1-3.94.96-5.67-.17-1.22-.8-2.4-.98-3.72-.99-2.27-.02-4.54-.02-6.81-.06-1.59-.03-3.23.12-4.53-1.18-.28-.28-.88-.34-1.33-.35-2.17-.04-4.35-.07-6.52,0-.63.02-1.41.19-1.83.6-1.02.97-2.22.93-3.44.93-4.73,0-9.46-.11-14.18.07-2.57.1-4.41-1.21-6.4-2.4-.4-.24-1.17-.54-1.36-.36-1.28,1.16-2.82,1.05-4.3.98-2.39-.11-4.75.22-7.06-1.33-1.31-.88-3.57-.8-5.12.36-1.8,1.35-3.78.95-5.73.92-.39,0-.82-.36-1.16-.65-1.74-1.48-2.58-1.4-3.58.49-.56,1.06-1.41,1.55-2.49,2.09-2.14,1.08-4.33,1.53-6.67,1.87-1.67.24-3.21,1.36-4.82,2.06-.4.17-1.06.45-1.24.28-1.5-1.36-3.29-.56-4.92-.67-.93-.06-1.91.54-2.87.86-.7.23-1.39.64-2.1.7-1.68.13-3.37.12-5.05.12-.46,0-1.16-.02-1.33-.3-1.09-1.71-2.88-1.37-4.37-1.41-2.8-.08-5.64-.13-8.31,1.13-.49.23-1.35.18-1.81-.11-1.74-1.09-3.86-1.27-5.44-.72-2.67.93-5.52,1.14-8.06,2.22-1.49.64-2.56.83-3.92.1-.56-.3-1.22-.56-1.85-.58-2.83-.12-5.66-.18-8.5-.21-3.87-.04-7.75,0-11.62-.08-.71,0-1.61-.21-2.09-.67-1.51-1.45-3.28-1.18-5.07-1.13-1.68.04-3.41-.22-5.05.06-4.19.73-8.48-1.08-12.61.63-.43.18-1.06-.18-1.6-.19-.44,0-1.13,0-1.27.25-.79,1.37-2.08,1.11-3.27,1.13-5.1.08-10.21.12-15.31.2-1.12.02-2.17.1-3.19.88-.66.51-1.77.57-2.68.59-2.64.07-5.29,0-7.94.03-3.08.03-3.33.28-3.38,3.45-.03,1.98,0,3.97,0,5.96h.02v-.02Z"/>
        <path class="cls-2" d="m80.86,173.89c-2.11-.05-4.17-.08-6.03-1.29-.37-.24-.92-.38-1.36-.33-2.47.29-4.53-.77-6.58-1.89-1.15-.63-2.24-1.22-2.52-2.79-.16-.93-.78-1.93-1.48-2.57-1.17-1.07-1.45-2.31-1.44-3.77,0-1.2,0-2.33-.9-3.44-.92-1.13-.9-2.74.01-3.97.8-1.09.94-2.21.95-3.46,0-1.98.35-3.78,1.32-5.65,1.88-3.64,3.02-7.66,4.92-11.28,1.18-2.24,1.24-4.45,1.33-6.77.07-1.7.12-3.37,1.02-4.93.4-.68.45-1.63.45-2.47.03-4.25.36-8.55-.18-12.74-.32-2.46-1.05-5.08-2.09-7.38-.81-1.8-2.31-3.25-2.79-5.35-.22-.96-1.36-1.71-2.06-2.58-1.73-2.14-4.01-3.88-4.96-6.62-.12-.36-.65-.85-.96-.83-1.65.1-2.06-.96-2.36-2.22-.16-.68-.74-1.69-.48-1.97.65-.72,1.53-1.02,2.75-.84,2.29.35,4.41.75,5.85,2.76,2.39.26,3.26,2.52,4.91,3.76.51.38.87.95,1.33,1.4.46.46.91,1.2,1.45,1.29,3.46.58,5.15,3.33,7.25,5.61.3.33.69.59,1.07.84.23.15.61.15.76.35,1.38,1.83,2.72,3.7,4.08,5.55,1.44,1.97,1.08,4.71,2.84,6.55.12.12.2.36.18.52-.38,2.83,1.82,4.79,2.44,7.27.36,1.45.5,2.97.57,4.46.06,1.23.03,2.35.82,3.48.54.77.58,1.94.69,2.94.16,1.55-.18,3.08,1.2,4.46.63.63.42,2.15.51,3.27.13,1.47.26,2.8,1.06,4.24,1.01,1.82,1.39,4.09,1.65,6.21.32,2.61.24,5.28.33,7.92,0,.19.05.4-.02.56-.8,1.84,1.99,3.19.71,5.04-1.06,1.54-.84,3.28-.83,4.94,0,1.37-.59,2.32-1.46,3.2-1.35,1.37-2.82,2.63-4.06,4.1-1.5,1.77-3.47,2.87-5.44,3.83-1.27.62-2.94.42-4.44.58h0Z"/>
        <path class="cls-1" d="m156.71,158.17c.52,3.48-1.54,5.74-3.77,7.77-2.05,1.87-4.13,3.91-7.3,3.61-2.23,1.37-4.71,1.18-7.14,1-1.17-.09-2.3-.64-3.46-.9-1-.22-2.02-.4-3.04-.44-1.27-.05-2.21-.38-3.22-1.34-2.52-2.41-4.19-5.47-6.58-7.95-.29-.3-.37-.86-.42-1.31-.09-.78-.43-1.28-1.02-1.86-.95-.94-1.9-1.91-2.14-3.48-.14-.97-1.22-1.8-1.82-2.72-.41-.62-1.06-1.31-1.04-1.94.12-3.13-1.9-5.28-3.51-7.5-1.15-1.58-1.47-3.41-2.36-5.03-.62-1.14-.99-2.4-1.55-3.57-1.89-3.95-3.82-7.87-5.71-11.82-.24-.49-.34-1.09-.37-1.64-.04-1.06-.34-1.78-1.55-1.97-.47-.07-1.06-.54-1.25-.97-1-2.3-2.95-3.73-4.66-5.38-.59-.57-1.32-1.18-1.55-1.91-.36-1.14-.65-2.8.46-3.38,1.01-.53,2.58-.33,3.79-.02,1.03.27,1.88,1.18,2.84,1.75.61.36,1.28.61,1.93.91.56.27,1.13.55,1.68.83.41.21.8.59,1.22.63,2.43.26,4.33,1.65,6.44,2.64,1.79.83,3.02,1.92,4.35,3.2.83.8,2.14,1.09,3.11,1.78,1.41,1.01,2.81,2.07,4.03,3.3.72.72,1.37,1.21,2.39,1.23.93.03,1.7.44,2.56.86,2.12,1.03,4.09,2.36,5.55,4.03,1.73,1.97,4.03,2.79,6,4.22,1.15.83,2.11,1.87,3.72,1.74.36-.03.84.35,1.14.66,1.77,1.82,3.81,3.36,4.82,5.9.4,1,1.62,1.78,2.63,2.4.82.5,1.28.96,1.31,1.94.05,1.22.23,2.44.39,3.66.32,2.49,1.09,4.79,2.32,7.02.63,1.15.53,2.7.76,4.07l.02-.02Z"/>
        <path class="cls-1" d="m337.14,390.87c-.06,1.92-.06,3.73-1.86,5.08-1.78,1.33-3.72,1.09-5.69.99-.19,0-.38-.04-.56-.1-2.89-.87-5.61-1.77-7.78-4.27-2.13-2.46-4.91-4.35-7.44-6.46-2.66-2.22-5.39-4.36-8.03-6.6-.62-.53-1.26-1.3-1.4-2.05-.38-2-1.91-2.86-3.29-3.96-1.01-.8-2.1-.43-2.38.33-.73,1.99-2.64,2.55-4,3.71-3.14,2.68-6.39,5.25-9.79,7.57-1.76,1.2-3.53,2.25-4.99,3.88-1.21,1.37-2.86,2.37-4.39,3.43-1,.69-2.03,1.06-3.43.67-1.69-.47-3.54-.4-5.32-.53-2.27-.17-4.13-2.06-4.23-4.36-.02-.47.07-.97-.05-1.41-.68-2.51.31-4.12,2.52-5.29.78-.41,1.31-1.28,1.94-1.96s1.2-1.4,1.85-2.06c.58-.59,1.19-1.15,1.83-1.69.42-.35.89-.87,1.36-.89,2.46-.15,4.4-1.67,6.45-2.66,1.66-.8,2.94-2.56,4.13-4.08,1.24-1.59,2.35-3.16,4.53-3.55.48-.09.98-.56,1.28-.98,1.03-1.43,2.06-2.88,2.94-4.41,1.31-2.28,2.9-4.08,5.69-4.46.43-.06.81-.45,1.24-.61,1.83-.68,3.67-.78,5.45.16.58.31,1.08.93,1.68,1.02,2.43.38,3.34,2.25,4.14,4.15.68,1.62,1.55,2.96,3.09,3.92.67.42,1.14,1.23,1.55,1.95,2.68,4.69,6.77,7.92,11.14,10.89,1.15.78,2.14,1.79,3.22,2.68.65.54,1.26,1.17,2,1.53,3.16,1.57,4.65,4.57,6.3,7.39.47.8.23,2.02.32,3.04h-.02Z"/>
        <path class="cls-1" d="m212.11,8.91c-.62.05-.81.08-1,.09-3.39.18-4.8-1.5-3.43-4.57.45-1.01,1.33-2.47,2.96-2.57,1.66-.1,3.44.15,4.48-1.63,1.4-.08,2.8-.18,4.2-.23,1.16-.04,1.96.21,2.71,1.44,1.39,2.28,1.38,2.05.05,4.18-.74,1.2-1.51,1.45-2.69,1.47-1.27.02-2.55-.22-3.42,1.3-.29.51-1.7.4-2.61.51-.56.07-1.13.01-1.26.01h0Z"/>
      </g>
    </g>
  </g>
</svg>